# xmcd
#
# Track frame offsets: 
#        150
#        22874
#        48720
#        67115
#        88714
#        109767
#        129407
#        148893
#        179253
#        212420
#        228650
#        246760
#
# Disc length: 3513 seconds
#
# Revision: 0
# Processed by: cddbd v1.5.2PL0 Copyright (c) Steve Scherf et al.
# Submitted via: ExactAudioCopy v0.99pb5
#
DISCID=ab0db70c
DTITLE=Eric Yodis - No Easy Roads
DYEAR=2006
DGENRE=CCM
TTITLE0=You Were There
TTITLE1=The Anchor Holds
TTITLE2=O Lord, You're Beautiful
TTITLE3=Starry Night Lullaby - by Eric Yodis
TTITLE4=What if I Gave All
TTITLE5=The Candle Song
TTITLE6=Above All
TTITLE7=Teach Me Lord to be Thankful - by Eric Yodis
TTITLE8=Watch the Lamb
TTITLE9=Lord Make Haste - by Eric Yodis
TTITLE10=I Will Go
TTITLE11=Untitled Hymn
EXTD=
EXTT0=
EXTT1=
EXTT2=
EXTT3=
EXTT4=
EXTT5=
EXTT6=
EXTT7=
EXTT8=
EXTT9=
EXTT10=
EXTT11=
PLAYORDER=
